<?xml version="1.0" encoding="utf-8"?>
<!-- Generator: Adobe Illustrator 27.5.0, SVG Export Plug-In . SVG Version: 6.00 Build 0)  -->
<svg version="1.1" xmlns="http://www.w3.org/2000/svg" xmlns:xlink="http://www.w3.org/1999/xlink" x="0px" y="0px"
	 viewBox="0 0 500 500" style="enable-background:new 0 0 500 500;" xml:space="preserve">
<g id="BACKGROUND">
</g>
<g id="OBJECTS">
	<g>
		<path style="fill:#DEDDFF;" d="M422.661,362.01c-39.333-34.926,38.61-71.276,38.667-97.78
			c0.067-31.133-37.181-24.282-70.181-41.741c-21.288-11.263,0.333-38.82,4.586-54.857c9.891-37.296,2.639-82.306-33.102-103.128
			c-54.9-31.982-140.602-4.708-151.75,61.588c-1.816,10.799-3.296,20.759-3.296,31.688c0,8.898,2.96,32.239-8.342,36.782
			c-8.667,3.483-53.459-33.592-85.399-26.186c-43.31,10.045-66.339,67.695-10.339,114.787c30.121,25.33-16.93,53.998-1.677,97.928
			c10.464,30.138,32.919,28.504,75.432,31.596c49.555,3.604,147.146,7.535,196.555-2.961
			C383.608,407.646,460.129,395.28,422.661,362.01z"/>
		<g>
			<g>
				<g>
					<path style="fill:#FFFFFF;" d="M152.087,153.436c-4.485,0-8.133-3.648-8.133-8.133v-42.351c0-4.485,3.648-8.133,8.133-8.133
						h106.607c4.484,0,8.133,3.648,8.133,8.133v42.351c0,4.485-3.648,8.133-8.133,8.133H152.087z"/>
					<path style="fill:#82C3FF;" d="M258.694,95.818c3.94,0,7.133,3.194,7.133,7.133v42.351c0,3.94-3.194,7.133-7.133,7.133H152.087
						c-3.94,0-7.133-3.194-7.133-7.133v-42.351c0-3.94,3.194-7.133,7.133-7.133H258.694 M258.694,93.818H152.087
						c-5.036,0-9.133,4.097-9.133,9.133v42.351c0,5.036,4.097,9.133,9.133,9.133h106.607c5.036,0,9.133-4.097,9.133-9.133v-42.351
						C267.827,97.915,263.73,93.818,258.694,93.818L258.694,93.818z"/>
				</g>
				<g>
					<rect x="162.284" y="118.58" style="fill:#DEDDFF;" width="86.214" height="3.547"/>
					<rect x="162.284" y="127.97" style="fill:#DEDDFF;" width="86.214" height="3.547"/>
					<rect x="162.284" y="137.36" style="fill:#DEDDFF;" width="86.214" height="3.547"/>
				</g>
				<path style="fill:#82C3FF;" d="M265.827,107.704v-4.753c0-3.94-3.194-7.133-7.133-7.133H152.087
					c-3.94,0-7.133,3.194-7.133,7.133v4.753H265.827z"/>
				<g>
					<path style="fill:#FF0000;" d="M158.347,101.761c0,1.71-1.387,3.097-3.097,3.097s-3.097-1.386-3.097-3.097
						c0-1.71,1.387-3.097,3.097-3.097S158.347,100.051,158.347,101.761z"/>
					<path style="fill:#FBDA4C;" d="M170.553,101.761c0,1.71-1.387,3.097-3.097,3.097s-3.097-1.386-3.097-3.097
						c0-1.71,1.387-3.097,3.097-3.097S170.553,100.051,170.553,101.761z"/>
					<path style="fill:#49F04F;" d="M182.76,101.761c0,1.71-1.387,3.097-3.097,3.097s-3.097-1.386-3.097-3.097
						c0-1.71,1.387-3.097,3.097-3.097S182.76,100.051,182.76,101.761z"/>
				</g>
			</g>
			<g>
				<g>
					<g>
						<path style="fill:#FFFFFF;" d="M169.205,319.181c-4.713,0-8.547-3.834-8.547-8.547v-156.18c0-4.713,3.834-8.547,8.547-8.547
							h240.723c4.713,0,8.547,3.834,8.547,8.547v156.18c0,4.713-3.834,8.547-8.547,8.547H169.205z"/>
						<path style="fill:#82C3FF;" d="M409.928,146.907c4.168,0,7.547,3.379,7.547,7.547v156.18c0,4.168-3.379,7.547-7.547,7.547
							H169.205c-4.168,0-7.547-3.379-7.547-7.547v-156.18c0-4.168,3.379-7.547,7.547-7.547H409.928 M409.928,144.907H169.205
							c-5.264,0-9.547,4.283-9.547,9.547v156.18c0,5.264,4.283,9.547,9.547,9.547h240.723c5.264,0,9.547-4.283,9.547-9.547v-156.18
							C419.475,149.189,415.192,144.907,409.928,144.907L409.928,144.907z"/>
					</g>
					<path style="fill:#82C3FF;" d="M417.475,162.461v-8.008c0-4.168-3.379-7.547-7.547-7.547H169.205
						c-4.168,0-7.547,3.379-7.547,7.547v8.008H417.475z"/>
					<g>
						<circle style="fill:#FF0000;" cx="171.418" cy="154.684" r="3.097"/>
						<circle style="fill:#FBDA4C;" cx="183.625" cy="154.684" r="3.097"/>
						<circle style="fill:#49F04F;" cx="195.831" cy="154.684" r="3.097"/>
					</g>
				</g>
				<g>
					<g>
						<polygon style="fill:#8CC8FF;" points="292.204,297.633 235.195,308.601 182.644,299.804 182.644,174.205 232.753,182.95 
							292.176,172.027 349.563,182.95 401.787,174.124 401.787,299.823 349.829,308.601 						"/>
						<g>
							<path style="fill:#FFFFFF;" d="M240.472,241.851c0.89-0.251,1.777-0.512,2.666-0.767v-43.935l-10.312,1.895l-34.343-5.995
								v58.877C212.651,249.436,226.639,245.756,240.472,241.851z"/>
							<path style="fill:#FFFFFF;" d="M235.731,256.317c-12.269,3.321-24.693,6.324-37.247,8.428v21.648l36.518,6.113l8.137-1.565
								v-36.679C240.672,254.957,238.204,255.648,235.731,256.317z"/>
							<path style="fill:#FFFFFF;" d="M302.076,241.528c-6.159-2.187-9.828-2.053-16.071,0.161
								c-5.249,1.861-10.614,3.242-15.962,4.787c-4.747,1.371-9.489,2.763-14.232,4.146v37.883l36.378-6.997l33.314,6.339v-38.258
								C317.668,246.957,309.851,244.289,302.076,241.528z"/>
							<path style="fill:#FFFFFF;" d="M274.189,232.109c10.482-2.898,18.084-7.005,28.962-3.591
								c7.454,2.339,14.904,4.699,22.352,7.066v-41.087l-33.377-6.352l-36.316,6.675v42.582
								C261.927,235.604,268.044,233.808,274.189,232.109z"/>
							<path style="fill:#FFFFFF;" d="M338.173,253.807v36.451l11.821,2.249l35.953-6.071v-17.579
								C369.975,263.971,354.029,258.996,338.173,253.807z"/>
							<path style="fill:#FFFFFF;" d="M385.948,254.895v-62.031l-36.552,6.181l-11.223-2.136v42.712
								C354.097,244.704,370.017,249.814,385.948,254.895z"/>
						</g>
					</g>
					<g>
						<g>
							<path style="fill:#FF3B5A;" d="M382.919,136.171c-18.118,0-32.805,14.687-32.805,32.805c0,8.715,4.929,17.455,9.674,23.26
								l18.895,23.978c2.159,2.74,6.311,2.74,8.471,0c0,0,18.877-23.955,18.894-23.976c8.479-10.174,9.677-18.837,9.677-23.262
								C415.724,150.858,401.037,136.171,382.919,136.171z M382.919,182.064c-8.058,0-14.59-6.532-14.59-14.59
								c0-8.058,6.532-14.59,14.59-14.59c8.058,0,14.59,6.532,14.59,14.59C397.509,175.532,390.977,182.064,382.919,182.064z"/>
						</g>
					</g>
				</g>
			</g>
			<g>
				<g>
					<path style="fill:#FFFFFF;" d="M303.301,385.699c-4.485,0-8.134-3.648-8.134-8.134v-42.351c0-4.485,3.648-8.134,8.134-8.134
						h106.606c4.485,0,8.134,3.648,8.134,8.134v42.351c0,4.485-3.648,8.134-8.134,8.134H303.301z"/>
					<path style="fill:#82C3FF;" d="M409.908,328.081c3.94,0,7.133,3.194,7.133,7.133v42.351c0,3.94-3.194,7.133-7.133,7.133
						H303.301c-3.94,0-7.133-3.194-7.133-7.133v-42.351c0-3.94,3.194-7.133,7.133-7.133H409.908 M409.908,326.081H303.301
						c-5.036,0-9.133,4.097-9.133,9.133v42.351c0,5.036,4.097,9.133,9.133,9.133h106.607c5.036,0,9.133-4.097,9.133-9.133v-42.351
						C419.041,330.178,414.944,326.081,409.908,326.081L409.908,326.081z"/>
				</g>
				<g>
					<rect x="313.497" y="350.843" style="fill:#DEDDFF;" width="86.214" height="3.547"/>
					<rect x="313.497" y="360.233" style="fill:#DEDDFF;" width="86.214" height="3.547"/>
					<rect x="313.497" y="369.623" style="fill:#DEDDFF;" width="86.214" height="3.547"/>
				</g>
				<path style="fill:#82C3FF;" d="M417.041,339.967v-4.753c0-3.94-3.194-7.133-7.133-7.133H303.301
					c-3.94,0-7.133,3.194-7.133,7.133v4.753H417.041z"/>
				<g>
					<circle style="fill:#FF0000;" cx="306.463" cy="334.024" r="3.097"/>
					<circle style="fill:#FBDA4C;" cx="318.67" cy="334.024" r="3.097"/>
					<circle style="fill:#49F04F;" cx="330.876" cy="334.024" r="3.097"/>
				</g>
			</g>
			<g>
				<g>
					<path style="fill:#FFFFFF;" d="M192.158,394.699c-4.485,0-8.133-3.648-8.133-8.134v-51.351c0-4.485,3.648-8.134,8.133-8.134
						h71.452c4.484,0,8.133,3.648,8.133,8.134v51.351c0,4.485-3.648,8.134-8.133,8.134H192.158z"/>
					<path style="fill:#82C3FF;" d="M263.609,328.081c3.94,0,7.133,3.194,7.133,7.133v51.351c0,3.94-3.194,7.133-7.133,7.133
						h-71.452c-3.94,0-7.133-3.194-7.133-7.133v-51.351c0-3.94,3.194-7.133,7.133-7.133H263.609 M263.609,326.081h-71.452
						c-5.036,0-9.133,4.097-9.133,9.133v51.351c0,5.036,4.097,9.133,9.133,9.133h71.452c5.036,0,9.133-4.097,9.133-9.133v-51.351
						C272.742,330.178,268.645,326.081,263.609,326.081L263.609,326.081z"/>
				</g>
				<path style="fill:#82C3FF;" d="M270.742,339.967v-4.753c0-3.94-3.194-7.133-7.133-7.133h-71.452
					c-3.94,0-7.133,3.194-7.133,7.133v4.753H270.742z"/>
				<g>
					<circle style="fill:#FF0000;" cx="195.32" cy="334.024" r="3.097"/>
					<circle style="fill:#FBDA4C;" cx="207.527" cy="334.024" r="3.097"/>
					<circle style="fill:#49F04F;" cx="219.733" cy="334.024" r="3.097"/>
				</g>
				<g>
					<g>
						<polygon style="fill:#DEDDFF;" points="247.046,390.183 208.391,390.183 208.391,365.112 227.883,346.743 247.046,365.112 
													"/>
						<g>
							<rect x="223.348" y="373.105" style="fill:#FFFFFF;" width="8.741" height="17.077"/>
						</g>
						<polygon style="fill:#DEDDFF;" points="251.537,367.383 227.883,343.728 204.229,367.383 206.403,369.557 227.883,348.077 
							249.363,369.557 						"/>
					</g>
					<g>
						<g>
							<rect x="211.919" y="369.557" style="fill:#FFFFFF;" width="8.693" height="8.693"/>
							<rect x="215.592" y="369.202" style="fill:#DEDDFF;" width="1.082" height="9.439"/>
							
								<rect x="215.592" y="369.202" transform="matrix(-1.836970e-16 1 -1 -1.836970e-16 590.0544 157.7879)" style="fill:#DEDDFF;" width="1.082" height="9.439"/>
						</g>
						<g>
							<rect x="235.419" y="369.557" style="fill:#FFFFFF;" width="8.693" height="8.693"/>
							<rect x="239.092" y="369.202" style="fill:#DEDDFF;" width="1.082" height="9.439"/>
							
								<rect x="239.092" y="369.202" transform="matrix(-1.836970e-16 1 -1 -1.836970e-16 613.5544 134.2879)" style="fill:#DEDDFF;" width="1.082" height="9.439"/>
						</g>
					</g>
					<g>
						<circle style="fill:#FFFFFF;" cx="227.719" cy="362.583" r="3.75"/>
						<rect x="227.156" y="358.44" style="fill:#DEDDFF;" width="1.125" height="8.172"/>
						
							<rect x="227.156" y="358.44" transform="matrix(-1.836970e-16 1 -1 -1.836970e-16 590.2441 134.8065)" style="fill:#DEDDFF;" width="1.125" height="8.171"/>
					</g>
				</g>
			</g>
		</g>
		<g>
			<g>
				<g>
					<path style="fill:#433D8A;" d="M154.801,249.698l-3.209,77.46l-1.582,38.7l-1.475,38.691l-9.158,0.127
						c-0.848-12.829-1.885-25.655-3.033-38.477c-1.183-12.821-2.405-25.64-3.756-38.453c-1.331-12.814-2.67-25.626-4.129-38.43
						c-1.412-12.801-2.946-25.618-4.502-38.382L154.801,249.698z"/>
				</g>
				<g>
					<path style="fill:#524AA8;" d="M154.02,249.569l-0.228,0.303l-0.298,0.479l-0.601,0.969l-1.23,2.096
						c-0.828,1.404-1.609,2.903-2.418,4.355c-1.582,2.977-3.162,5.979-4.692,9.047c-3.118,6.096-5.928,12.402-8.792,18.713
						c-5.668,12.661-10.825,25.645-15.678,38.774l-3.591,9.877c-1.164,3.306-2.295,6.626-3.413,9.951
						c-2.314,6.631-4.352,13.347-6.444,20.058c-1.083,3.348-1.981,6.74-2.963,10.116c-0.975,3.378-1.915,6.765-2.849,10.155
						c-0.925,3.393-1.736,6.81-2.592,10.22c-0.853,3.411-1.701,6.824-2.485,10.25l-7.236-1.285c0.502-3.497,0.94-7.007,1.373-10.519
						l1.291-10.545c0.947-7.019,1.734-14.076,2.648-21.123l1.376-10.578c0.41-3.539,0.904-7.065,1.396-10.595l1.436-10.61
						l1.566-10.609c2.152-14.151,4.487-28.328,7.194-42.56l2.151-10.677c0.79-3.559,1.508-7.128,2.321-10.72
						c0.778-3.585,1.639-7.188,2.523-10.807l1.418-5.486l0.752-2.8l0.425-1.464l0.216-0.738l0.301-0.907L154.02,249.569z"/>
				</g>
				<g>
					<path style="fill:#4458AB;" d="M163.11,412.38l-23.993,0.307c-1.132,0.018-2.065-0.885-2.083-2.017l-0.076-4.291
						c0.03-1.808,1.233-3.594,2.963-3.957c0,0,12.157,1.325,16.965,2.483c5.153,1.241,8.07,2.298,8.326,3.022
						C166.077,410.37,164.671,412.072,163.11,412.38z"/>
				</g>
				<g>
					<path style="fill:#5068C9;" d="M111.427,412.38l-23.993,0.307c-1.132,0.018-2.065-0.885-2.083-2.017l-0.076-4.291
						c0.03-1.808,1.233-3.594,2.963-3.957c0,0,12.157,1.325,16.965,2.483c5.153,1.241,8.07,2.298,8.326,3.022
						C114.394,410.37,112.988,412.072,111.427,412.38z"/>
				</g>
			</g>
			<g>
				<g>
					<g>
						<path style="fill:#E3A5A2;" d="M191.426,206.338c0.791,3.555,1.717,7.065,2.572,10.599c0.905,3.517,1.822,7.029,2.78,10.529
							c1.889,7.007,3.901,13.972,5.936,20.93l-0.21-0.54c2.48,6.28,4.982,12.549,7.604,18.766c1.298,3.114,2.635,6.211,3.984,9.303
							c1.398,3.07,2.726,6.171,4.185,9.214c1.403,2.927,0.168,6.439-2.76,7.842c-2.928,1.403-6.438,0.168-7.842-2.76
							c-0.053-0.11-0.102-0.221-0.147-0.333l-0.011-0.027c-1.258-3.129-2.646-6.201-3.965-9.303
							c-1.368-3.081-2.748-6.156-4.166-9.215c-2.812-6.128-5.743-12.203-8.696-18.268l-0.018-0.041l-0.193-0.5
							c-2.606-6.764-5.235-13.521-7.987-20.236c-1.363-3.362-2.767-6.71-4.182-10.054c-1.466-3.327-2.861-6.678-4.39-9.984
							c-2.155-4.658-0.126-10.182,4.532-12.338c4.658-2.155,10.182-0.126,12.337,4.532
							C191.066,205.055,191.284,205.718,191.426,206.338z"/>
					</g>
					<path style="fill:#D95C3F;" d="M190.505,202.25l7.835,27.304l-16.051,6.621l-12.706-34.318l7.457-14.173l7.383,4.045
						C186.949,193.668,189.457,198.92,190.505,202.25z"/>
					<g>
						<g>
							<g>
								<path style="fill:#E3A5A2;" d="M220.255,292.272c0.199,0.188,0.232,0.24,0.292,0.308c0.064,0.075,0.117,0.143,0.15,0.19
									c0.073,0.103,0.167,0.229,0.217,0.315c0.12,0.191,0.231,0.38,0.313,0.547c0.188,0.353,0.318,0.669,0.443,0.988
									c0.248,0.634,0.415,1.23,0.561,1.82c0.282,1.175,0.451,2.305,0.565,3.419c0.223,2.225,0.225,4.381,0.154,6.514
									c-0.033,1.006-0.876,1.794-1.881,1.76c-0.869-0.029-1.576-0.662-1.73-1.482l-0.005-0.027
									c-0.374-1.982-0.822-3.939-1.429-5.76c-0.303-0.907-0.648-1.78-1.036-2.558c-0.193-0.384-0.399-0.753-0.608-1.045
									c-0.101-0.144-0.208-0.288-0.297-0.37c-0.048-0.056-0.084-0.079-0.114-0.098c-0.021-0.022-0.019,0.009-0.019,0.009
									c-0.006-0.004,0.004,0.015,0.024,0.043c0.016,0.021,0.007,0.024,0.158,0.168c-1.309-1.171-1.421-3.182-0.25-4.491
									C216.935,291.213,218.946,291.101,220.255,292.272z"/>
							</g>
							<g>
								<path style="fill:#E3A5A2;" d="M222.379,288.246c0.267,0.215,0.277,0.246,0.363,0.33c0.084,0.086,0.128,0.14,0.174,0.195
									c0.096,0.114,0.19,0.233,0.25,0.322c0.146,0.201,0.257,0.382,0.355,0.553c0.2,0.348,0.362,0.674,0.493,0.986
									c0.28,0.632,0.469,1.221,0.648,1.809c0.34,1.167,0.559,2.292,0.746,3.408c0.347,2.225,0.506,4.399,0.595,6.559
									c0.042,1.005-0.74,1.854-1.745,1.895c-0.871,0.036-1.624-0.546-1.837-1.356l-0.005-0.022
									c-0.525-1.994-1.116-3.958-1.833-5.797c-0.367-0.909-0.758-1.797-1.192-2.582c-0.218-0.384-0.443-0.761-0.669-1.05
									c-0.11-0.155-0.223-0.277-0.315-0.365c-0.048-0.046-0.089-0.08-0.11-0.081c-0.019-0.016-0.014,0.006-0.006,0.023
									c0.002,0.006,0.002,0.011,0.038,0.052c0.039,0.038,0.003,0.022,0.218,0.197c-1.402-1.059-1.68-3.053-0.622-4.455
									C218.982,287.466,220.977,287.188,222.379,288.246z"/>
							</g>
							<g>
								<path style="fill:#E3A5A2;" d="M216.716,291.58c0.192,0.318,0.243,0.446,0.34,0.645c0.091,0.187,0.157,0.354,0.235,0.532
									c0.14,0.345,0.274,0.686,0.386,1.022c0.237,0.674,0.421,1.339,0.591,2.003c0.329,1.327,0.542,2.645,0.691,3.954
									c0.149,1.31,0.205,2.611,0.218,3.901c0.009,1.29-0.056,2.569-0.149,3.837c-0.074,1.001-0.945,1.753-1.946,1.68
									c-0.885-0.065-1.576-0.754-1.673-1.605l-0.005-0.049c-0.134-1.168-0.293-2.324-0.516-3.459
									c-0.227-1.133-0.489-2.25-0.825-3.328c-0.335-1.077-0.718-2.126-1.171-3.107c-0.229-0.487-0.466-0.966-0.725-1.405
									c-0.126-0.225-0.26-0.431-0.39-0.631c-0.065-0.09-0.133-0.198-0.194-0.274c-0.051-0.067-0.153-0.203-0.128-0.139
									c-0.988-1.453-0.61-3.431,0.843-4.419C213.751,289.75,215.729,290.127,216.716,291.58z"/>
							</g>
							<g>
								<path style="fill:#E3A5A2;" d="M213.685,291.266c0.344,1.42,0.583,2.693,0.823,4.034c0.232,1.325,0.44,2.648,0.616,3.973
									c0.356,2.65,0.607,5.305,0.757,7.961c0.056,1.003-0.711,1.862-1.714,1.918c-0.895,0.05-1.675-0.555-1.872-1.398
									l-0.003-0.014c-0.587-2.492-1.268-4.955-2.041-7.381c-0.384-1.213-0.798-2.415-1.23-3.604
									c-0.429-1.172-0.898-2.4-1.362-3.452c-0.712-1.614,0.02-3.499,1.633-4.21c1.614-0.712,3.499,0.02,4.21,1.633
									C213.578,290.898,213.641,291.091,213.685,291.266z"/>
							</g>
						</g>
						<path style="fill:#E3A5A2;" d="M206.173,287.973c-0.036-3.853,6.071-8.454,6.071-8.454c6.674,1.826,9.268,5.006,10.499,7.373
							l-1.139,8.881c0,0-3.868,1.331-3.876,1.333c-1.684,0.579-3.551,1.031-5.324,0.59
							C209.994,297.096,206.208,291.608,206.173,287.973z"/>
						<g>
							<path style="fill:#E3A5A2;" d="M223.801,293.544c-0.091-0.255-0.242-0.739-0.421-1.096c-0.172-0.385-0.386-0.745-0.604-1.088
								c-0.453-0.678-1.002-1.23-1.6-1.633c-0.603-0.4-1.228-0.697-1.942-0.825c-0.327-0.108-0.725-0.1-1.077-0.152
								c-0.371-0.024-0.773,0.014-1.145,0.004l-0.331-0.009c-1.769-0.047-3.165-1.518-3.119-3.287
								c0.047-1.769,1.518-3.165,3.287-3.119c0.189,0.005,0.391,0.03,0.57,0.066c0.66,0.138,1.307,0.24,1.956,0.432
								c0.652,0.226,1.297,0.4,1.921,0.738c1.259,0.566,2.413,1.449,3.34,2.457c0.934,1.014,1.632,2.182,2.098,3.38
								c0.225,0.603,0.417,1.207,0.548,1.822c0.142,0.637,0.219,1.177,0.264,1.957c0.059,1.026-0.725,1.905-1.751,1.964
								c-0.845,0.049-1.59-0.474-1.86-1.233L223.801,293.544z"/>
						</g>
					</g>
				</g>
				<g>
					<path style="fill:#5C92DE;" d="M184.481,352.438c-2.698,0.358-5.373-0.177-7.735-1.543c-5.845-3.384-7.848-10.892-4.465-16.737
						c0.218-0.378,0.467-0.757,0.739-1.128l72.082-97.959c0.906-1.232,2.24-2.021,3.757-2.222c1.434-0.19,2.867,0.178,4.033,1.036
						c2.284,1.68,2.936,4.812,1.517,7.286l-60.926,105.259C191.565,349.744,188.283,351.934,184.481,352.438z"/>
					<path style="fill:#32679C;" d="M204.981,289.593l-31.961,43.435c-0.271,0.371-0.52,0.751-0.739,1.128
						c-3.383,5.846-1.38,13.354,4.465,16.737c2.362,1.367,5.037,1.901,7.735,1.543c3.802-0.504,7.083-2.694,9.002-6.009
						l26.328-45.485C214.883,297.139,209.941,293.355,204.981,289.593z"/>
					<g>
						
							<ellipse transform="matrix(0.9986 -0.0537 0.0537 0.9986 -9.2549 15.7261)" style="opacity:0.33;fill:#D1E9FF;" cx="287.816" cy="179.968" rx="66.348" ry="66.348"/>
						<g>
							<path style="opacity:0.33;fill:#FFFFFF;" d="M353.447,189.617c0.894-6.133,0.93-12.326,0.119-18.398
								c-39.802,16.122-79.164,33.798-119.96,47c2.382,3.378,5.102,6.561,8.145,9.497
								C279.641,217.102,316.835,204.12,353.447,189.617z"/>
							<path style="opacity:0.33;fill:#FFFFFF;" d="M226.439,205.152c19.261-6.04,38.374-12.55,57.292-19.61
								c22.203-8.285,44.246-19.274,67.31-25.641c-2.868-9.054-7.67-17.536-14.287-24.751
								c-20.005,7.861-39.476,17.111-59.253,25.553c-18.423,7.863-37.122,15.042-55.971,21.808
								C221.835,190.28,223.497,197.952,226.439,205.152z"/>
							<path style="opacity:0.45;fill:#FFFFFF;" d="M298.397,143.881c-3.629,5.545-11.066,7.098-16.61,3.469
								c-5.545-3.629-7.098-11.066-3.469-16.61c3.629-5.545,11.066-7.098,16.61-3.469
								C300.473,130.9,302.026,138.336,298.397,143.881z"/>
						</g>
					</g>
					<path style="fill:#5C92DE;" d="M297.736,255.115c-17.974,2.381-36.239-1.783-51.429-11.725
						c-34.971-22.889-44.8-69.961-21.912-104.931c12.091-18.475,31.592-30.735,53.5-33.637c17.974-2.381,36.238,1.783,51.43,11.726
						c16.941,11.087,28.549,28.108,32.688,47.927c4.139,19.819,0.311,40.063-10.776,57.003
						c-12.092,18.474-31.593,30.735-53.499,33.637C297.736,255.115,297.737,255.115,297.736,255.115z M279.402,116.255
						c-18.574,2.461-35.107,12.856-45.359,28.519c-19.406,29.65-11.072,69.56,18.578,88.965c12.88,8.43,28.366,11.961,43.606,9.942
						c18.574-2.461,35.107-12.856,45.358-28.52c9.401-14.363,12.646-31.527,9.138-48.33c-3.509-16.803-13.352-31.235-27.715-40.635
						C310.13,117.766,294.643,114.236,279.402,116.255z"/>
					<path style="fill:#3C7DBD;" d="M324.15,124.453c-30.66-20.067-71.782-11.48-91.849,19.18
						c-20.067,30.66-11.48,71.782,19.18,91.849s71.782,11.48,91.849-19.18C363.397,185.643,354.81,144.52,324.15,124.453z
						 M341.586,215.162c-10.251,15.664-26.784,26.059-45.358,28.52c-15.241,2.019-30.726-1.512-43.606-9.942
						c-29.65-19.405-37.984-59.315-18.578-88.965c10.252-15.663,26.785-26.058,45.359-28.519
						c15.241-2.019,30.727,1.512,43.607,9.941c14.363,9.401,24.206,23.832,27.715,40.635
						C354.232,183.635,350.987,200.799,341.586,215.162z"/>
				</g>
			</g>
			<path style="fill:#FF876B;" d="M154.289,273.384c3.055-27.582,33.464-71.884,33.464-71.884
				c2.053-4.249-0.706-10.333-11.636-14.239l-20.421-8.224c-4.88-1.948-8.649-0.911-14.132,5.595c0,0-21.684,20.938-31.637,75.259
				C122.927,266.286,135.924,270.578,154.289,273.384z"/>
			<g>
				<path style="fill:#E3A5A2;" d="M160.95,183.08c0,0-0.868,4.537,4.344,6.617c5.212,2.08,7.706-1.808,7.706-1.808
					s1.008-7.469,6.036-13.659c-0.144-3.74-8.507-7.903-12.695-4.657C164.986,176.193,160.95,183.08,160.95,183.08z"/>
				<g>
					<path style="fill:#AD577F;" d="M189.201,146.387c0,0,5.858,14.366-2.215,21.934l-2.562-0.818L189.201,146.387z"/>
					<path style="fill:#FFB9B6;" d="M191.985,163.265c-1.579,4.193-4.755,6.879-7.093,5.999c-2.338-0.881-2.953-4.994-1.373-9.187
						c1.579-4.194,4.755-6.879,7.093-5.999C192.95,154.958,193.565,159.072,191.985,163.265z"/>
					<path style="fill:#FFB9B6;" d="M156.592,140.504c4.132-4.685,9.999-7.414,16.286-6.918c0.208,0.016,0.426,0.048,0.641,0.074
						c0.216,0.008,0.437,0.011,0.645,0.028c6.287,0.495,8.716,0.32,12.242,5.476c4.547,6.648,1.652,18.63,1.346,22.508
						c-0.866,10.99-2.611,18.775-12.819,17.919c-10.687-0.897-20.903-9.05-20.64-20.514
						C154.383,155.188,154.016,143.425,156.592,140.504z"/>
					<path style="fill:#AD577F;" d="M188.944,151.237c11.458-3.926,2.236-18.344-7.175-21.796
						c-15.273-5.601-26.46-4.253-28.499,5.185c0,0-7.963,6.2-3.54,16.229c0,0-4.15,19.297,9.749,20.392
						c0,0-3.091-2.451-5.327-10.363c0,0,8.803-4.777,4.352-17.007C158.503,143.877,177.486,155.163,188.944,151.237z"/>
					<path style="fill:#FFB9B6;" d="M147.73,159.777c0.903,4.389,3.619,7.539,6.065,7.036c2.447-0.503,3.698-4.469,2.795-8.859
						c-0.903-4.389-3.618-7.539-6.065-7.036C148.079,151.422,146.828,155.388,147.73,159.777z"/>
				</g>
			</g>
			<g>
				<g>
					<g>
						<path style="fill:#FFB9B6;" d="M161.349,203.355l6.125,42.602l-4.746-5.01l24.732,7.257l12.366,3.678l6.195,1.873l3.119,0.964
							l1.575,0.496l1.68,0.555c3.312,1.095,5.109,4.667,4.014,7.979c-1.083,3.275-4.588,5.069-7.869,4.05l-0.214-0.067l-1.384-0.431
							l-1.502-0.445l-3.046-0.886l-6.159-1.752l-12.373-3.459l-24.798-6.834c-2.245-0.619-3.901-2.323-4.555-4.389l-0.191-0.622
							l-12.684-41.129c-1.649-5.348,1.349-11.021,6.698-12.671c5.348-1.649,11.021,1.349,12.67,6.698
							C161.155,202.305,161.274,202.859,161.349,203.355z"/>
					</g>
					<g>
						<g>
							<path style="fill:#FFB9B6;" d="M225.296,256.94c-0.51,0.028-1.225,0.117-1.761,0.329c-0.561,0.203-1.049,0.489-1.435,0.85
								c-0.384,0.368-0.704,0.738-0.934,1.212c-0.249,0.437-0.413,0.959-0.564,1.468c-0.512,1.733-2.332,2.722-4.065,2.209
								c-1.733-0.513-2.722-2.333-2.209-4.065c0.15-0.506,0.411-0.949,0.749-1.31l0.133-0.139c0.357-0.377,0.691-0.749,1.069-1.097
								c0.409-0.337,0.767-0.684,1.225-0.967c0.843-0.608,1.844-1.04,2.828-1.314c0.995-0.275,2.013-0.335,2.965-0.24
								c0.978,0.104,1.801,0.324,2.754,0.758c0.602,0.274,0.868,0.985,0.594,1.587c-0.191,0.419-0.593,0.676-1.023,0.7
								L225.296,256.94z"/>
						</g>
						<path style="fill:#FFB9B6;" d="M217.852,255.738c-1.549-0.185-3.284-0.332-5.222,0.428c-1.419,0.557-3.794,4.447-3.583,6.167
							c0.51,4.156,3.146,6.932,5.423,8.683c1.834,1.411,4.657,2.671,5.799,3.365c0.539,0.328,0.98-0.413,1.186-1.009l3.81-9.298
							C222.686,262.616,217.852,255.738,217.852,255.738z"/>
						<g>
							<path style="fill:#FFB9B6;" d="M223.669,262.754c-0.116-0.076-0.073-0.044-0.088-0.052c-0.012-0.003,0.009,0.008,0.019,0.015
								c0.02,0.014,0.046,0.032,0.09,0.053c0.069,0.04,0.163,0.083,0.258,0.127c0.193,0.085,0.404,0.173,0.63,0.251
								c0.444,0.164,0.93,0.305,1.418,0.44c0.985,0.265,2.015,0.478,3.053,0.672c2.085,0.373,4.221,0.638,6.366,0.853l0.008,0.001
								c0.743,0.074,1.285,0.736,1.21,1.479c-0.069,0.694-0.658,1.212-1.339,1.217c-2.209,0.009-4.427-0.033-6.669-0.198
								c-1.123-0.092-2.25-0.203-3.399-0.386c-0.577-0.097-1.154-0.2-1.754-0.35c-0.298-0.07-0.604-0.157-0.923-0.26
								c-0.16-0.053-0.321-0.107-0.499-0.18c-0.083-0.031-0.178-0.073-0.28-0.12l-0.163-0.08c-0.074-0.042-0.092-0.042-0.264-0.156
								c-0.918-0.642-1.142-1.907-0.5-2.826C221.486,262.335,222.751,262.111,223.669,262.754z"/>
						</g>
						<g>
							<path style="fill:#FFB9B6;" d="M222.852,265.242c-0.079-0.116-0.085-0.115-0.085-0.115c-0.01-0.009-0.02-0.015-0.009-0.004
								c0.015,0.015,0.008,0.023,0.036,0.049c0.046,0.047,0.089,0.099,0.166,0.157c0.124,0.115,0.306,0.237,0.49,0.351
								c0.368,0.237,0.826,0.442,1.293,0.63c0.948,0.371,2.002,0.643,3.08,0.858c1.087,0.199,2.201,0.348,3.332,0.443
								c1.131,0.099,2.275,0.138,3.424,0.171l0.038,0.001c0.745,0.022,1.333,0.643,1.311,1.389c-0.02,0.699-0.575,1.26-1.258,1.309
								c-1.201,0.082-2.406,0.158-3.624,0.169c-1.218,0.015-2.447-0.027-3.69-0.134c-1.245-0.126-2.504-0.315-3.789-0.677
								c-0.644-0.19-1.291-0.401-1.953-0.731c-0.332-0.163-0.662-0.336-1.006-0.576c-0.167-0.107-0.346-0.247-0.521-0.394
								c-0.085-0.067-0.188-0.172-0.278-0.259c-0.042-0.039-0.1-0.103-0.156-0.168c-0.051-0.06-0.102-0.111-0.221-0.288
								c-0.603-0.945-0.325-2.199,0.62-2.802C220.995,264.02,222.25,264.298,222.852,265.242z"/>
						</g>
						<g>
							<path style="fill:#FFB9B6;" d="M221.62,268.426c-0.173-0.159-0.123-0.106-0.162-0.136c-0.035-0.02-0.013-0.004-0.013-0.004
								c-0.004,0.004,0.017,0.019,0.051,0.038c0.043,0.035,0.142,0.078,0.223,0.122c0.186,0.085,0.402,0.172,0.641,0.247
								c0.467,0.159,1.001,0.277,1.537,0.388c1.088,0.209,2.244,0.322,3.403,0.412c2.333,0.152,4.721,0.134,7.113,0.043l0.011,0
								c0.746-0.028,1.373,0.553,1.402,1.299c0.027,0.701-0.492,1.299-1.173,1.391c-2.441,0.322-4.902,0.575-7.42,0.646
								c-1.264,0.02-2.535,0.018-3.85-0.108c-0.662-0.072-1.327-0.154-2.03-0.315c-0.348-0.075-0.711-0.176-1.091-0.306
								c-0.198-0.075-0.383-0.138-0.607-0.249c-0.102-0.046-0.215-0.103-0.346-0.182c-0.068-0.042-0.11-0.06-0.204-0.127
								c-0.099-0.076-0.113-0.064-0.342-0.275c-0.796-0.789-0.801-2.074-0.012-2.869C219.54,267.643,220.825,267.637,221.62,268.426
								z"/>
						</g>
						<g>
							<path style="fill:#FFB9B6;" d="M218.074,268.798c-0.047-0.068,0.05,0.093,0.104,0.164c0.057,0.09,0.152,0.189,0.224,0.286
								c0.175,0.192,0.358,0.388,0.574,0.57c0.412,0.376,0.906,0.702,1.422,1.007c1.046,0.598,2.253,1.023,3.518,1.303
								c1.259,0.312,2.594,0.424,3.934,0.505l2.035-0.001l2.052-0.126l0.086-0.005c0.743-0.046,1.383,0.52,1.429,1.263
								c0.044,0.705-0.469,1.318-1.156,1.418l-2.197,0.312c-0.74,0.074-1.487,0.119-2.233,0.178
								c-1.504,0.031-3.027,0.025-4.565-0.222c-1.535-0.216-3.088-0.612-4.584-1.309c-0.744-0.357-1.479-0.762-2.171-1.288
								c-0.35-0.253-0.684-0.546-1.013-0.857c-0.162-0.171-0.323-0.322-0.482-0.515c-0.17-0.206-0.288-0.329-0.519-0.702
								c-0.547-0.978-0.197-2.214,0.781-2.761C216.291,267.47,217.527,267.82,218.074,268.798z"/>
						</g>
					</g>
					<path style="fill:#FF876B;" d="M144.88,227.667h20.75l-2.61-26.163l-16.326-20.078
						C146.693,181.426,131.181,191.659,144.88,227.667z"/>
				</g>
				<g>
					<g>
						<path style="fill:#D95C3F;" d="M163.229,203.602c0.55,1.97,0.935,3.957,1.267,5.95c0.34,1.992,0.586,3.992,0.804,5.996
							c0.208,2.005,0.362,4.015,0.431,6.033c0.074,2.018,0.077,4.043-0.101,6.086c-0.578-1.968-0.975-3.954-1.301-5.946
							c-0.331-1.992-0.577-3.993-0.77-5.999c-0.182-2.007-0.336-4.017-0.396-6.037C163.094,207.666,163.079,205.642,163.229,203.602
							z"/>
					</g>
					<g>
						<path style="fill:#D95C3F;" d="M144.88,227.667c-1.469-2.763-2.585-5.698-3.516-8.685c-0.929-2.99-1.628-6.055-2.103-9.16
							c-0.428-3.113-0.635-6.265-0.497-9.412c0.198-3.143,0.744-6.279,1.839-9.207c-0.461,3.095-0.643,6.155-0.6,9.224
							c0.122,3.068,0.403,6.119,0.852,9.158c0.47,3.035,1.075,6.053,1.753,9.063C143.303,221.655,144.058,224.655,144.88,227.667z"
							/>
					</g>
				</g>
			</g>
		</g>
		<rect x="44.409" y="409.727" style="fill:#D1DADD;" width="411.182" height="5.922"/>
	</g>
</g>
<g id="DESIGNED_BY_FREEPIK">
	<g>
		<g id="XMLID_29_">
			<g id="XMLID_48_">
				<path id="XMLID_56_" style="fill:#1D262D;" d="M260.104,465.465c-0.432,0.443-0.803,0.931-1.108,1.453l-0.465-0.241
					c-0.067-0.298-0.349-0.503-0.659-0.466c-0.331,0.039-0.568,0.339-0.529,0.67c0.039,0.331,0.339,0.568,0.67,0.529
					c0.066-0.008,0.127-0.026,0.184-0.052l0.451,0.234c-0.251,0.554-0.433,1.139-0.539,1.744l0.747,0.132
					c0.23-1.306,0.85-2.507,1.792-3.473L260.104,465.465z"/>
				<path id="XMLID_55_" style="fill:#1D262D;" d="M265.592,463.163c-0.171,0-0.341,0.006-0.51,0.017l-0.074-0.626
					c0.188-0.149,0.296-0.389,0.266-0.645c-0.046-0.393-0.402-0.674-0.795-0.628c-0.393,0.046-0.674,0.402-0.628,0.795
					c0.03,0.254,0.189,0.461,0.404,0.564l0.074,0.624c-0.714,0.116-1.403,0.332-2.06,0.646l0.327,0.684
					c0.934-0.447,1.942-0.673,2.995-0.673c0.496,0,0.993,0.053,1.475,0.158l0.161-0.741
					C266.692,463.222,266.142,463.163,265.592,463.163z"/>
				<path id="XMLID_54_" style="fill:#1D262D;" d="M272.194,465.711c0.331-0.04,0.566-0.341,0.526-0.672
					c-0.04-0.331-0.341-0.566-0.672-0.526c-0.309,0.038-0.535,0.304-0.53,0.609l-0.416,0.363c-0.418-0.43-0.889-0.813-1.408-1.139
					l-0.404,0.641c1.134,0.715,2.021,1.726,2.563,2.925l0.69-0.313c-0.251-0.554-0.567-1.072-0.942-1.545l0.402-0.351
					C272.065,465.716,272.129,465.719,272.194,465.711z"/>
				<path id="XMLID_53_" style="fill:#1D262D;" d="M265.044,473.372c-0.386,0.023-0.775,0.035-1.157,0.035
					c-0.88,0-1.733-0.061-2.478-0.179c-0.39-0.062-0.846-0.155-1.27-0.292c1.046,1.861,3.069,3.125,5.388,3.125
					c2.855,0,5.262-1.916,5.95-4.504c-0.682,0.449-1.505,0.825-2.459,1.123C267.839,473.047,266.463,473.286,265.044,473.372z"/>
				<path id="XMLID_49_" style="fill:#1D262D;" d="M265.592,464.68c-3.352,0-6.08,2.666-6.08,5.943c0,0.426,0.046,0.849,0.137,1.261
					c0.673,0.483,2.706,0.89,5.348,0.731c2.879-0.173,5.297-0.957,6.672-2.159c-0.006-0.195-0.021-0.39-0.045-0.582
					C271.244,466.913,268.65,464.68,265.592,464.68z M263.432,471.194c-1.02,0-1.85-0.83-1.85-1.85c0-1.02,0.83-1.85,1.85-1.85
					c1.02,0,1.85,0.83,1.85,1.85C265.282,470.365,264.452,471.194,263.432,471.194z M268.17,470.286c-0.75,0-1.36-0.61-1.36-1.36
					s0.61-1.361,1.36-1.361c0.75,0,1.361,0.61,1.361,1.361S268.92,470.286,268.17,470.286z"/>
			</g>
			<path id="XMLID_46_" style="fill:#1D262D;" d="M281.595,466.547c-0.295-0.116-0.805-0.309-1.382-0.237
				c-0.551,0.069-0.844,0.341-0.844,1.007v0.866h2.228v1.717h-2.228v5.455h-1.932v-5.455h-1.34v-1.717h1.34v-0.888
				c0-1.68,0.896-2.783,2.568-2.783c0.643,0,1.157,0.122,1.59,0.308L281.595,466.547z"/>
			<path id="XMLID_44_" style="fill:#1D262D;" d="M286.298,469.879c-0.177-0.03-0.358-0.046-0.526-0.046
				c-0.896,0-1.51,0.548-1.51,1.614v3.908h-1.932v-7.172h1.873v0.785c0.451-0.673,1.14-0.977,2.021-0.977
				c0.414,0,0.848,0.128,1.094,0.337L286.298,469.879z"/>
			<path id="XMLID_41_" style="fill:#1D262D;" d="M293.965,471.757c0,0.222-0.015,0.489-0.037,0.651h-5.085
				c0.207,1.036,0.933,1.488,1.843,1.488c0.622,0,1.295-0.252,1.813-0.688l1.133,1.243c-0.814,0.748-1.85,1.088-3.057,1.088
				c-2.198,0-3.723-1.495-3.723-3.753c0-2.258,1.48-3.797,3.627-3.797C292.544,467.99,293.958,469.522,293.965,471.757z
				 M288.851,471.091h3.175c-0.177-0.918-0.733-1.436-1.562-1.436C289.554,469.655,289.021,470.203,288.851,471.091z"/>
			<path id="XMLID_38_" style="fill:#1D262D;" d="M301.618,471.757c0,0.222-0.015,0.489-0.037,0.651h-5.085
				c0.207,1.036,0.933,1.488,1.843,1.488c0.622,0,1.295-0.252,1.814-0.688l1.132,1.243c-0.814,0.748-1.85,1.088-3.057,1.088
				c-2.198,0-3.723-1.495-3.723-3.753c0-2.258,1.48-3.797,3.627-3.797C300.197,467.99,301.611,469.522,301.618,471.757z
				 M296.504,471.091h3.175c-0.178-0.918-0.733-1.436-1.562-1.436C297.207,469.655,296.674,470.203,296.504,471.091z"/>
			<path id="XMLID_35_" style="fill:#1D262D;" d="M309.964,471.764c0,2.154-1.495,3.775-3.471,3.775
				c-0.962,0-1.643-0.378-2.109-0.933v3.708h-1.924v-10.133h1.887v0.792c0.466-0.585,1.155-0.984,2.139-0.984
				C308.469,467.99,309.964,469.61,309.964,471.764z M304.287,471.764c0,1.132,0.748,1.976,1.843,1.976
				c1.14,0,1.85-0.881,1.85-1.976c0-1.095-0.71-1.976-1.85-1.976C305.035,469.788,304.287,470.632,304.287,471.764z"/>
			<path id="XMLID_32_" style="fill:#1D262D;" d="M313.068,465.836c0,0.696-0.54,1.229-1.236,1.229
				c-0.696,0-1.229-0.533-1.229-1.229c0-0.696,0.533-1.243,1.229-1.243C312.527,464.592,313.068,465.14,313.068,465.836z
				 M312.809,475.354h-1.932v-7.172h1.932V475.354z"/>
			<path id="XMLID_30_" style="fill:#1D262D;" d="M316.032,470.736l2.701-2.554h2.368l-3.479,3.375l3.501,3.797h-2.376l-2.716-2.901
				v2.901H314.1v-10.658h1.932V470.736z"/>
		</g>
		<g>
			<path style="fill:#1D262D;" d="M184.412,475.289v-1.055c-0.527,0.718-1.391,1.23-2.387,1.23c-1.846,0-3.149-1.406-3.149-3.706
				c0-2.256,1.289-3.721,3.149-3.721c0.952,0,1.816,0.469,2.387,1.245v-3.765h1.099v9.77H184.412z M184.412,473.37v-3.208
				c-0.395-0.615-1.245-1.143-2.124-1.143c-1.421,0-2.27,1.172-2.27,2.739c0,1.567,0.85,2.724,2.27,2.724
				C183.168,474.483,184.017,473.986,184.412,473.37z"/>
			<path style="fill:#1D262D;" d="M186.932,471.744c0-2.051,1.465-3.706,3.486-3.706c2.139,0,3.398,1.67,3.398,3.794v0.279h-5.727
				c0.088,1.333,1.025,2.446,2.549,2.446c0.805,0,1.626-0.322,2.182-0.894l0.527,0.718c-0.703,0.703-1.655,1.084-2.812,1.084
				C188.44,475.465,186.932,473.956,186.932,471.744z M190.403,468.947c-1.509,0-2.256,1.274-2.314,2.358h4.643
				C192.718,470.25,192.015,468.947,190.403,468.947z"/>
			<path style="fill:#1D262D;" d="M194.607,474.351l0.571-0.791c0.469,0.542,1.362,1.011,2.329,1.011c1.084,0,1.67-0.513,1.67-1.216
				c0-1.714-4.38-0.659-4.38-3.281c0-1.098,0.952-2.036,2.636-2.036c1.201,0,2.051,0.454,2.622,1.026l-0.513,0.762
				c-0.424-0.513-1.201-0.894-2.109-0.894c-0.967,0-1.567,0.483-1.567,1.113c0,1.552,4.38,0.527,4.38,3.281
				c0,1.187-0.952,2.138-2.783,2.138C196.306,475.465,195.325,475.113,194.607,474.351z"/>
			<path style="fill:#1D262D;" d="M201.477,466.471c0-0.41,0.337-0.747,0.732-0.747c0.41,0,0.747,0.337,0.747,0.747
				c0,0.41-0.337,0.732-0.747,0.732C201.814,467.203,201.477,466.881,201.477,466.471z M201.667,475.289v-7.075h1.099v7.075H201.667
				z"/>
			<path style="fill:#1D262D;" d="M204.582,477.105l0.556-0.82c0.586,0.703,1.289,0.967,2.3,0.967c1.172,0,2.27-0.571,2.27-2.124
				v-1.011c-0.513,0.718-1.377,1.26-2.373,1.26c-1.845,0-3.149-1.377-3.149-3.662c0-2.27,1.289-3.677,3.149-3.677
				c0.952,0,1.802,0.469,2.373,1.245v-1.069h1.098v6.87c0,2.344-1.641,3.076-3.369,3.076
				C206.237,478.16,205.417,477.926,204.582,477.105z M209.709,473.253v-3.091c-0.381-0.615-1.23-1.143-2.109-1.143
				c-1.421,0-2.27,1.128-2.27,2.695c0,1.553,0.849,2.695,2.27,2.695C208.478,474.41,209.328,473.868,209.709,473.253z"/>
			<path style="fill:#1D262D;" d="M217.413,475.289v-4.629c0-1.245-0.63-1.641-1.582-1.641c-0.865,0-1.685,0.527-2.095,1.099v5.17
				h-1.099v-7.075h1.099v1.025c0.498-0.586,1.464-1.201,2.519-1.201c1.48,0,2.256,0.747,2.256,2.285v4.966H217.413z"/>
			<path style="fill:#1D262D;" d="M219.932,471.744c0-2.051,1.465-3.706,3.486-3.706c2.139,0,3.398,1.67,3.398,3.794v0.279h-5.727
				c0.088,1.333,1.025,2.446,2.549,2.446c0.806,0,1.626-0.322,2.183-0.894l0.527,0.718c-0.703,0.703-1.655,1.084-2.812,1.084
				C221.441,475.465,219.932,473.956,219.932,471.744z M223.404,468.947c-1.509,0-2.256,1.274-2.314,2.358h4.643
				C225.718,470.25,225.015,468.947,223.404,468.947z"/>
			<path style="fill:#1D262D;" d="M233.35,475.289v-1.055c-0.527,0.718-1.392,1.23-2.388,1.23c-1.846,0-3.149-1.406-3.149-3.706
				c0-2.256,1.289-3.721,3.149-3.721c0.952,0,1.817,0.469,2.388,1.245v-3.765h1.098v9.77H233.35z M233.35,473.37v-3.208
				c-0.396-0.615-1.245-1.143-2.124-1.143c-1.421,0-2.27,1.172-2.27,2.739c0,1.567,0.849,2.724,2.27,2.724
				C232.105,474.483,232.954,473.986,233.35,473.37z"/>
			<path style="fill:#1D262D;" d="M239.692,475.289v-9.77h1.098v3.765c0.572-0.776,1.421-1.245,2.388-1.245
				c1.845,0,3.149,1.465,3.149,3.721c0,2.299-1.304,3.706-3.149,3.706c-0.996,0-1.86-0.513-2.388-1.23v1.055H239.692z
				 M242.9,474.483c1.436,0,2.285-1.157,2.285-2.724c0-1.568-0.85-2.739-2.285-2.739c-0.864,0-1.728,0.527-2.109,1.143v3.208
				C241.171,473.986,242.036,474.483,242.9,474.483z"/>
			<path style="fill:#1D262D;" d="M247.528,477.061c0.161,0.073,0.425,0.117,0.601,0.117c0.483,0,0.805-0.161,1.055-0.747
				l0.469-1.069l-2.959-7.148h1.187l2.358,5.8l2.344-5.8h1.201l-3.545,8.51c-0.425,1.025-1.143,1.421-2.08,1.435
				c-0.234,0-0.601-0.044-0.805-0.103L247.528,477.061z"/>
		</g>
	</g>
</g>
</svg>
